Coordinates
version=1
nRows=12
nColumns=24
inDegrees=yes

Units are S.I. units (second, meters, Newtons, ...)
Angles are in degrees.

endheader
time	pelvis_tilt	pelvis_list	pelvis_rotation	pelvis_tx	pelvis_ty	pelvis_tz	hip_flexion_r	hip_adduction_r	hip_rotation_r	knee_angle_r	ankle_angle_r	subtalar_angle_r	mtp_angle_r	hip_flexion_l	hip_adduction_l	hip_rotation_l	knee_angle_l	ankle_angle_l	subtalar_angle_l	mtp_angle_l	lumbar_extension	lumbar_bending	lumbar_rotation
      1.42483333	      4.30725449	      5.70635105	     -4.31411672	      0.31724801	      1.01876447	      0.31206610	     11.74279905	     -8.32902159	     -0.19901058	    -72.21900871	    -11.14923757	    -10.93813876	      1.82236931	      1.61744206	     11.16479612	      4.67373052	     -9.71407799	      3.72301517	    -16.46157332	     -6.57235262	    -16.15325809	     -0.38485877	     -2.83874110
      1.42900000	      4.30557267	      5.46841486	     -4.22972855	      0.32206288	      1.01966859	      0.31159654	     12.28312362	     -8.03641179	     -0.35495290	    -71.98243643	    -10.55159406	    -11.16049197	      1.74150827	      1.04180788	     10.93997880	      4.84930763	     -9.21504863	      3.70890527	    -16.46363586	     -6.57459285	    -16.17048226	     -0.02817189	     -3.06574577
      1.43316667	      4.28404251	      5.23625452	     -4.14396451	      0.32685277	      1.02047814	      0.31112954	     12.83693159	     -7.74718820	     -0.51146491	    -71.70114346	     -9.90381325	    -11.38669682	      1.69915737	      0.51126197	     10.71420493	      4.96301609	     -8.75830374	      3.71295349	    -16.39645709	     -6.57562247	    -16.17788705	      0.31700419	     -3.18671260
      1.43733333	      4.31267574	      4.98554632	     -4.04577178	      0.33168336	      1.02136730	      0.31065839	     13.29816176	     -7.44222969	     -0.68951594	    -71.32404528	     -9.30246640	    -11.56388133	      1.59710674	     -0.10814278	     10.47127225	      5.14900489	     -8.23905013	      3.72280128	    -16.37482391	     -6.57786901	    -16.21354943	      0.68572545	     -3.49642003
      1.44150000	      4.32486916	      4.74954593	     -3.94636240	      0.33648961	      1.02216609	      0.31019036	     13.77090142	     -7.15215216	     -0.86543501	    -70.90672300	     -8.65289163	    -11.73667477	      1.49349909	     -0.69054787	     10.23811694	      5.29205258	     -7.75012147	      3.72586088	    -16.32322741	     -6.58049122	    -16.24357598	      1.03796484	     -3.70384071
      1.44566667	      4.32870404	      4.50635333	     -3.84083181	      0.34130308	      1.02291653	      0.30970969	     14.23280702	     -6.85484449	     -1.04935542	    -70.42687354	     -7.99988211	    -11.90816625	      1.38858128	     -1.25801295	      9.99409514	      5.41876086	     -7.27379547	      3.74135533	    -16.24683905	     -6.58298488	    -16.26615287	      1.41033009	     -3.89554064
      1.44983333	      4.33629492	      4.26625858	     -3.73578837	      0.34612776	      1.02362271	      0.30925324	     14.67246892	     -6.55880170	     -1.23336767	    -69.88808146	     -7.33884103	    -12.05214672	      1.26797617	     -1.82745207	      9.74922932	      5.53899096	     -6.80160577	      3.76488816	    -16.15528648	     -6.58507362	    -16.28698718	      1.74977294	     -4.10353769
      1.45400000	      4.29738988	      4.04062514	     -3.62528811	      0.35093148	      1.02420662	      0.30879769	     15.15572016	     -6.27387039	     -1.41312931	    -69.30888933	     -6.64791138	    -12.21501279	      1.21164087	     -2.31909644	      9.51390775	      5.60945287	     -6.37739602	      3.77843203	    -16.04008212	     -6.58621712	    -16.26658323	      2.07162071	     -4.19521501
      1.45816667	      4.36568621	      3.81593322	     -3.51525832	      0.35576319	      1.02490362	      0.30834107	     15.49383476	     -6.00647792	     -1.60903473	    -68.65448191	     -5.97141430	    -12.31513335	      1.01312013	     -2.95983237	      9.28349725	      5.73176476	     -5.88546746	      3.80362487	    -15.93075459	     -6.58973907	    -16.34459218	      2.41772159	     -4.51317534
      1.46233333	      4.34874733	      3.57678914	     -3.41046284	      0.36059025	      1.02542245	      0.30790409	     15.91580490	     -5.70783978	     -1.78357449	    -67.95402587	     -5.31365560	    -12.38117268	      0.87087214	     -3.48543981	      9.03032468	      5.82200196	     -5.44192511	      3.86677287	    -15.80812634	     -6.59088048	    -16.33874366	      2.77298630	     -4.65322515
      1.46650000	      4.36673062	      3.36551212	     -3.30774731	      0.36541485	      1.02592751	      0.30747424	     16.28728005	     -5.44557394	     -1.95720263	    -67.20679589	     -4.63008591	    -12.44634304	      0.73207230	     -4.04267118	      8.80705677	      5.89143869	     -5.00194297	      3.91352460	    -15.67187833	     -6.59247150	    -16.36484641	      3.08292846	     -4.81517654
      1.47066667	      4.35200365	      3.14702643	     -3.19536318	      0.37023874	      1.02635521	      0.30706421	     16.67311476	     -5.16944702	     -2.13325984	    -66.39954905	     -3.94994605	    -12.52153144	      0.64501313	     -4.54399725	      8.57005801	      5.93770110	     -4.60320849	      3.95158907	    -15.54371707	     -6.59313930	    -16.34908939	      3.37839671	     -4.91847791
